<?xml version="1.0" standalone="no"?>
<!DOCTYPE svg PUBLIC "-//W3C//DTD SVG 20010904//EN"
 "http://www.w3.org/TR/2001/REC-SVG-20010904/DTD/svg10.dtd">
<svg version="1.0" xmlns="http://www.w3.org/2000/svg"
 width="300.000000pt" height="300.000000pt" viewBox="0 0 300.000000 300.000000"
 preserveAspectRatio="xMidYMid meet">
<metadata>
Created by potrace 1.11, written by Peter Selinger 2001-2013
</metadata>
<g transform="translate(0.000000,300.000000) scale(0.100000,-0.100000)"
fill="#000000" stroke="none">
<path d="M1 2210 c0 -434 5 -790 9 -790 4 0 10 -7 13 -14 4 -10 1 -13 -9 -9
-11 4 -14 -6 -14 -47 0 -38 3 -49 12 -44 10 6 10 5 1 -7 -13 -17 -15 -427 -1
-435 7 -5 13 64 9 113 -1 12 4 25 10 29 9 5 10 1 7 -14 -8 -27 -4 -27 34 -1
19 14 27 27 23 37 -5 13 -3 13 11 1 10 -8 12 -15 5 -17 -20 -7 -11 -19 14 -20
13 0 22 4 19 9 -2 5 -5 33 -5 64 -1 46 3 58 22 74 26 21 20 50 -11 58 -22 6
-27 35 -8 50 7 6 26 15 42 20 17 5 32 15 34 22 3 10 0 10 -17 2 -13 -8 -21 -8
-21 -2 0 6 15 15 33 20 17 5 26 10 18 10 -11 1 -10 5 3 20 12 13 14 21 6 26
-5 3 -8 11 -5 16 4 5 -6 4 -21 -1 -19 -8 -30 -8 -38 0 -7 7 -5 10 8 10 9 0 15
4 12 9 -3 4 13 7 36 5 43 -3 62 -19 52 -44 -4 -12 -1 -11 12 2 14 13 15 20 5
31 -8 10 -9 22 -2 40 14 36 28 41 57 22 29 -19 29 -19 38 13 7 21 -5 29 -38
23 -11 -2 -56 39 -56 51 0 5 5 6 10 3 6 -3 10 1 10 9 0 15 44 21 118 19 6 -1
12 4 12 10 0 6 -24 8 -69 3 -78 -7 -111 3 -126 37 -6 13 -23 24 -43 28 -45 9
-52 19 -14 19 23 0 40 -9 64 -35 28 -32 36 -35 72 -31 23 3 80 6 129 7 48 2
87 7 87 11 0 4 -4 8 -10 8 -5 0 -10 7 -10 15 0 12 -18 13 -107 10 -73 -3 -103
-2 -93 5 8 5 24 10 34 10 11 0 27 7 36 15 9 8 26 16 38 18 12 2 24 6 28 9 3 4
12 4 19 2 25 -10 25 14 -1 31 -20 13 -29 14 -39 5 -8 -7 -13 -17 -12 -22 1 -6
-4 -13 -12 -16 -10 -3 -12 0 -8 12 5 12 3 15 -6 9 -6 -4 -21 -6 -32 -5 -17 2
-17 1 -5 -7 8 -6 13 -11 10 -12 -3 0 -12 -2 -22 -4 -10 -2 -19 6 -23 19 -4 13
-8 16 -12 8 -2 -6 -9 -10 -14 -6 -5 3 -9 0 -9 -5 0 -6 -6 -11 -14 -11 -11 0
-12 5 -3 25 8 17 18 24 29 21 10 -2 20 0 23 5 3 4 13 5 21 2 13 -5 13 -8 2
-15 -9 -6 -6 -8 10 -4 52 14 62 18 62 27 0 6 -9 7 -22 3 -13 -4 -30 -6 -38 -5
-8 0 -23 1 -32 2 -10 0 -20 4 -22 8 -3 4 22 8 54 9 33 0 65 4 71 8 9 5 10 2 6
-9 -4 -11 -2 -14 9 -10 7 3 14 9 14 14 0 5 6 9 14 9 8 0 18 4 21 10 3 6 -1 7
-9 4 -12 -5 -16 0 -16 20 0 14 -4 26 -8 26 -4 0 -9 11 -10 25 -1 13 -3 30 -4
37 -2 7 3 12 10 11 6 -2 12 2 12 8 0 7 -10 9 -25 7 -14 -3 -22 -1 -18 5 3 5
-3 6 -16 2 -13 -4 -28 -1 -36 5 -10 9 -15 9 -15 2 0 -6 -7 -9 -15 -6 -21 9 -8
24 21 24 13 0 24 5 24 11 0 6 13 8 34 5 43 -7 55 9 28 36 -21 22 -102 33 -99
14 1 -6 -8 -10 -21 -9 -13 2 -25 -4 -28 -12 -4 -8 -13 -15 -21 -15 -8 0 -11
-4 -8 -10 3 -5 -1 -10 -9 -10 -27 0 -18 27 13 39 20 9 29 19 28 36 0 20 -6 26
-36 32 l-36 7 33 7 c27 5 38 2 57 -17 20 -20 34 -24 83 -24 62 0 90 16 78 45
-4 11 2 15 23 15 27 0 29 3 28 35 -1 40 -1 40 -22 19 -12 -13 -19 -14 -30 -4
-17 14 -20 40 -5 40 5 0 7 -7 4 -15 -7 -18 9 -19 37 -4 12 6 18 17 15 24 -3 8
-1 17 4 20 6 4 10 1 10 -5 0 -18 17 -3 23 20 5 18 3 19 -10 8 -14 -12 -15 -11
-5 9 19 34 14 48 -7 22 -11 -13 -22 -21 -25 -18 -4 3 5 18 20 34 22 24 26 39
31 111 5 82 0 97 -25 72 -9 -9 -12 -9 -12 -1 0 7 9 15 21 18 16 5 20 14 17 40
-1 19 1 37 4 40 4 4 4 13 2 20 -3 7 -1 16 5 19 7 5 9 -5 7 -26 -5 -40 3 -80
15 -73 4 3 5 13 2 22 -5 12 -3 14 7 8 9 -5 11 -4 6 3 -4 7 -4 17 0 24 5 7 18
-2 40 -28 18 -21 36 -35 41 -30 4 5 2 11 -5 13 -7 3 -17 16 -23 30 -12 31 22
73 44 55 8 -7 16 -9 19 -7 3 3 17 0 32 -6 19 -9 26 -20 26 -41 0 -15 -4 -28
-10 -28 -5 0 -10 -8 -10 -17 0 -16 2 -16 10 -3 14 20 0 -2136 -14 -2227 -3
-18 -2 -33 2 -34 12 -1 105 -1 132 0 17 1 21 4 12 9 -9 7 -8 13 7 26 20 18 53
18 95 1 14 -6 17 -5 12 4 -6 9 13 12 76 11 45 0 99 1 118 3 19 2 41 -1 48 -7
9 -7 16 -5 23 5 5 8 9 9 9 4 0 -6 16 -10 35 -10 19 0 35 4 35 9 0 5 9 1 20 -9
11 -10 23 -15 27 -12 3 4 0 7 -7 7 -7 0 -10 3 -6 8 10 9 406 12 406 3 0 -4 38
-8 85 -10 47 -1 100 -7 117 -12 42 -12 91 -12 84 0 -4 5 3 7 15 4 16 -4 17 -8
7 -14 -7 -5 -8 -9 -3 -10 6 -1 -3 -5 -20 -9 l-30 -8 32 -1 c17 0 33 -7 36 -13
2 -7 2 -1 0 14 -5 28 2 33 32 22 13 -6 14 -9 3 -16 -10 -7 -10 -11 0 -15 20
-8 14 -20 -13 -27 -22 -6 -25 -12 -25 -49 0 -26 3 -37 9 -29 4 7 6 24 4 36 -6
27 15 45 28 25 6 -10 9 -11 9 -1 0 6 5 12 11 12 6 0 8 -8 5 -18 -4 -10 1 -27
9 -38 12 -16 14 -16 15 -3 0 9 6 22 14 28 12 10 13 8 9 -9 -3 -11 -9 -23 -14
-26 -5 -3 -9 -14 -9 -25 0 -10 -4 -19 -10 -19 -5 0 -10 11 -10 25 0 14 -3 25
-6 25 -7 0 -38 -30 -33 -33 2 -1 14 -8 27 -15 19 -10 26 -10 48 5 21 13 27 14
34 3 5 -8 20 -11 41 -8 19 3 43 2 54 -3 16 -6 12 -8 -16 -8 -55 -1 -129 -13
-129 -20 0 -4 35 -8 77 -10 43 -1 80 -5 83 -9 9 -12 70 -12 70 0 0 7 12 0 28
-14 15 -14 32 -24 39 -21 7 2 22 -1 34 -7 13 -8 19 -8 15 -1 -4 5 5 4 20 -4
36 -19 380 -21 386 -2 2 7 5 48 7 91 3 72 1 79 -13 67 -13 -11 -16 -11 -16 2
0 22 11 48 19 43 3 -2 7 12 8 32 1 26 -1 32 -7 22 -6 -9 -10 -10 -10 -3 0 6 4
15 10 18 16 10 11 21 -10 22 -11 1 -20 -2 -20 -8 0 -5 -7 -9 -15 -9 -13 0 -14
4 -5 20 8 15 8 20 -1 20 -7 0 -10 3 -7 6 4 3 16 0 29 -6 21 -12 22 -11 15 31
-7 46 -23 72 -37 63 -5 -3 -9 2 -9 10 0 21 5 20 32 -7 14 -12 22 -30 20 -41
-2 -11 0 -16 6 -12 6 4 10 25 10 47 0 37 -2 40 -24 35 -12 -3 -26 -2 -29 4 -3
5 0 7 9 4 9 -3 17 2 21 15 3 12 10 19 14 16 7 -4 8 10 2 49 -3 23 -20 -15 -23
-51 -1 -7 -5 -13 -10 -13 -4 0 -8 43 -8 96 0 86 -2 96 -19 101 -17 4 -39 33
-25 33 14 0 54 -34 54 -46 0 -8 4 -14 9 -14 14 0 7 25 -13 46 -38 38 -46 78
-46 233 0 103 4 152 12 157 8 5 9 0 6 -14 -4 -12 -2 -22 3 -22 5 0 9 4 9 9 0
5 13 23 30 39 l29 30 -24 26 c-26 28 -46 37 -25 10 8 -8 9 -14 4 -13 -21 4
-26 -2 -14 -16 10 -12 10 -15 -3 -15 -22 0 -29 16 -13 29 7 6 12 23 10 37 -3
29 -14 46 -14 21 0 -10 -5 -14 -15 -11 -8 4 -15 2 -15 -4 0 -6 4 -12 10 -14 6
-2 6 -8 0 -18 -8 -13 -10 -12 -10 3 0 10 -5 15 -10 12 -6 -4 -7 -11 -4 -17 4
-7 2 -8 -5 -4 -6 4 -8 12 -5 18 4 7 2 8 -5 4 -6 -4 -18 -1 -26 7 -13 13 -12
16 2 21 9 4 20 1 25 -6 18 -29 11 44 -8 80 -23 45 -18 81 13 93 31 12 55 -3
35 -23 -17 -17 -15 -33 3 -18 10 8 15 9 15 1 0 -6 -11 -18 -25 -27 -14 -9 -25
-21 -25 -28 0 -8 3 -8 8 1 4 6 20 16 35 22 22 9 27 16 25 38 -2 16 -7 31 -13
35 -7 5 -7 8 0 8 6 0 9 28 8 67 -2 64 -1 67 34 100 l37 33 -30 0 c-51 0 -54 8
-56 121 0 57 -4 114 -9 125 -6 17 -4 23 12 27 10 3 22 1 25 -4 3 -5 10 -9 16
-9 6 0 3 9 -7 20 -14 15 -21 17 -32 9 -10 -9 -13 -8 -13 6 0 11 -5 15 -14 12
-14 -6 -32 21 -21 31 3 3 5 0 5 -6 0 -20 22 -13 45 14 27 32 48 24 39 -14 -4
-15 -4 -24 0 -20 4 3 9 30 10 59 2 29 8 55 15 57 19 6 12 19 -14 24 -14 3 -25
1 -25 -5 0 -24 -14 6 -15 33 -2 33 9 39 23 14 8 -14 10 -13 15 5 3 11 1 21 -4
21 -6 0 -7 16 -4 38 6 35 6 36 -10 17 -16 -19 -16 -17 -11 35 4 49 7 70 19
132 2 9 10 25 19 35 13 15 16 63 17 331 l2 313 -329 -1 c-280 -1 -330 -4 -328
-16 1 -8 10 -20 21 -27 24 -18 11 -37 -23 -35 -32 3 -42 14 -42 51 0 21 -5 27
-21 27 -18 0 -20 -5 -17 -42 2 -33 -1 -43 -12 -44 -8 0 -43 -14 -78 -31 l-62
-30 -428 4 c-235 2 -520 4 -633 4 -190 0 -209 1 -245 21 -21 11 -57 30 -79 42
-31 16 -41 27 -41 46 l0 25 -342 3 -342 2 1 -790z m599 770 c0 -5 -5 -10 -11
-10 -5 0 -7 5 -4 10 3 6 8 10 11 10 2 0 4 -4 4 -10z m1797 -5 c0 -8 -4 -12 -9
-9 -5 3 -6 10 -3 15 9 13 12 11 12 -6z m32 -52 c2 -2 -8 -3 -22 -3 -20 0 -25
4 -21 15 5 13 9 13 23 3 9 -7 18 -14 20 -15z m-1859 -17 c0 -2 -8 -10 -17 -17
-16 -13 -17 -12 -4 4 13 16 21 21 21 13z m95 -16 c3 -6 -1 -7 -9 -4 -18 7 -21
14 -7 14 6 0 13 -4 16 -10z m1771 -76 c1 -43 5 -98 9 -120 7 -39 6 -41 -16
-41 -50 -1 -60 -3 -54 -14 4 -6 13 -8 21 -5 17 6 18 -6 3 -21 -8 -8 3 -9 37
-5 35 4 45 2 40 -7 -4 -6 -16 -9 -27 -6 -13 4 -19 2 -19 -9 0 -9 8 -16 19 -16
14 0 18 -5 14 -20 -5 -20 -28 -23 -28 -4 0 5 -5 17 -11 28 -8 13 -13 15 -18 7
-4 -7 -1 -23 8 -36 21 -32 20 -38 -5 -25 -11 7 -22 10 -24 8 -9 -9 -9 -33 0
-35 6 -1 9 6 7 15 -2 13 -1 14 6 3 6 -8 5 -25 -2 -44 -8 -23 -8 -31 1 -34 8
-3 8 -13 -2 -37 -8 -19 -12 -36 -10 -38 10 -10 12 -68 2 -68 -6 0 -8 -3 -5 -6
3 -3 15 0 27 7 14 9 17 17 10 25 -7 8 -2 13 16 16 26 5 35 -6 13 -16 -10 -5
-10 -7 0 -12 18 -9 15 -21 -8 -27 -21 -5 -28 -37 -9 -37 6 0 8 7 5 16 -4 11
-2 14 6 11 48 -19 51 -20 44 -9 -5 8 -2 10 9 6 8 -4 14 -14 13 -22 -3 -16 1
-18 37 -21 8 0 15 -8 15 -16 0 -9 6 -18 14 -21 8 -3 12 -12 9 -20 -4 -10 0
-12 11 -8 12 4 15 2 10 -9 -3 -8 3 -21 13 -28 10 -8 19 -26 21 -41 3 -27 1
-28 -38 -28 -39 0 -40 -1 -29 -22 12 -23 12 -23 -10 -4 -11 11 -21 15 -21 10
0 -5 -4 -3 -9 5 -5 8 -23 15 -40 16 -25 2 -29 0 -21 -10 8 -9 6 -14 -5 -19 -8
-3 -15 -11 -15 -17 0 -8 6 -7 18 3 31 27 39 28 58 6 19 -21 19 -21 -8 -14 -21
5 -30 2 -38 -15 -9 -16 -9 -20 4 -17 8 2 21 -5 28 -15 15 -20 55 -25 109 -14
32 7 38 4 53 -18 16 -24 15 -25 -9 -31 -27 -7 -33 -19 -12 -27 7 -4 6 -6 -4
-6 -9 -1 -20 6 -23 14 -9 24 -74 17 -82 -9 -4 -11 -13 -27 -22 -35 -12 -12
-12 -16 -1 -20 8 -3 14 -12 14 -18 0 -7 3 -13 8 -13 4 0 12 0 18 0 5 0 7 5 3
11 -8 13 -7 13 59 -21 26 -13 47 -30 47 -37 0 -7 5 -13 10 -13 6 0 10 5 10 10
0 6 17 10 38 9 32 -1 33 -2 12 -8 -20 -6 -22 -8 -8 -13 10 -4 15 -16 14 -32
-2 -18 2 -26 12 -26 12 0 12 -3 2 -15 -7 -9 -16 -12 -19 -7 -13 18 -50 9 -72
-16 -24 -27 -24 -27 -1 -7 15 13 21 14 17 4 -3 -9 8 -22 33 -36 48 -27 53 -60
7 -55 -25 3 -31 9 -33 30 -3 31 -5 34 -25 26 -12 -4 -14 -11 -7 -24 5 -9 6
-20 3 -24 -3 -3 0 -6 7 -6 7 0 10 -3 7 -7 -4 -3 -15 1 -24 9 -21 19 -61 27
-64 13 -2 -5 10 -12 26 -15 25 -4 39 -25 18 -25 -5 0 -12 -3 -18 -7 -5 -3 -25
-4 -42 -2 -24 3 -33 0 -33 -11 0 -7 -9 -16 -19 -20 -11 -3 -23 -15 -26 -26 -4
-10 -10 -17 -14 -15 -4 3 -8 -1 -8 -9 0 -18 9 -19 26 -3 9 8 12 9 7 1 -3 -6
-3 -18 0 -27 7 -19 54 -11 67 11 10 17 28 17 21 0 -2 -7 4 -13 16 -14 11 -1
20 2 20 8 0 14 17 11 23 -5 4 -10 1 -13 -9 -9 -9 3 -14 -1 -14 -11 0 -9 -6
-16 -12 -15 -26 3 -39 -1 -33 -11 4 -6 16 -5 33 1 15 6 41 13 57 16 49 8 17
-14 -43 -30 -29 -7 -50 -16 -47 -19 4 -3 29 0 57 7 55 15 82 10 74 -12 -3 -8
-6 -19 -6 -25 0 -6 -7 -8 -15 -4 -8 3 -24 2 -36 -2 -20 -8 -20 -8 5 -21 21
-12 28 -12 43 0 11 9 14 10 9 1 -5 -8 0 -12 15 -12 16 0 20 -5 16 -20 -3 -13
0 -20 9 -20 8 0 14 -5 14 -11 0 -5 -12 -9 -27 -8 -47 4 -65 0 -60 -13 2 -7 10
-12 17 -10 6 1 10 -3 7 -10 -2 -7 -17 -12 -32 -11 -32 3 -55 -12 -55 -34 0
-10 6 -13 16 -9 8 3 12 2 9 -4 -3 -6 3 -10 15 -10 12 0 19 4 16 8 -2 4 4 9 15
9 10 1 19 -3 19 -10 0 -6 7 -2 15 9 14 18 15 18 9 0 -6 -15 -3 -17 16 -11 16
5 21 4 18 -6 -3 -8 -15 -13 -28 -11 -12 2 -20 -1 -16 -6 5 -8 -5 -13 -56 -27
-5 -2 -15 -3 -23 -4 -8 0 -15 -9 -15 -20 0 -10 -9 -21 -20 -24 -11 -3 -20 -10
-20 -15 0 -5 9 -12 20 -15 11 -3 20 -1 20 4 0 5 -6 9 -12 10 -9 0 -9 2 -2 5
13 5 84 -34 84 -46 0 -15 -29 -19 -37 -6 -5 8 -28 17 -53 21 -25 4 -42 4 -38
0 4 -5 25 -11 45 -14 24 -4 39 -12 41 -23 3 -14 -3 -16 -27 -13 -17 2 -40 6
-51 10 -22 7 -23 5 -14 -19 3 -9 11 -13 16 -10 6 4 8 -1 4 -14 -6 -17 -3 -19
12 -15 11 2 22 0 26 -5 4 -6 20 -6 47 1 39 9 40 11 23 24 -15 11 -16 17 -6 31
26 36 34 66 23 85 -9 13 -8 17 5 17 8 0 12 5 8 11 -8 14 14 29 33 22 8 -3 11
-13 8 -24 -4 -11 -2 -19 5 -19 14 0 5 -46 -17 -79 -9 -14 -16 -30 -15 -35 2
-5 -4 -6 -12 -3 -24 9 -8 -19 17 -30 17 -8 11 -10 -33 -13 -30 -2 -82 -4 -115
-3 -56 0 -75 -8 -75 -32 1 -5 5 -2 11 7 5 10 15 18 20 18 6 0 7 -4 4 -10 -3
-5 3 -10 14 -10 21 0 27 -11 14 -23 -3 -4 -11 -3 -17 3 -7 5 -17 5 -26 0 -13
-8 -12 -10 3 -10 9 0 17 -4 17 -10 0 -5 -7 -10 -16 -10 -13 0 -11 -4 6 -18 27
-22 19 -42 -16 -42 -13 0 -24 -5 -24 -11 0 -5 4 -8 9 -4 5 3 12 1 16 -5 3 -5
1 -10 -6 -10 -7 0 -10 -2 -7 -5 3 -3 33 -8 66 -10 49 -4 63 -2 70 11 6 11 11
13 16 5 4 -6 19 -12 34 -12 20 -1 17 -3 -13 -9 -64 -11 -69 -14 -82 -40 -7
-14 -26 -33 -43 -42 -30 -17 -60 -73 -60 -114 0 -16 -8 -28 -24 -35 -28 -13
-24 -39 5 -39 10 0 19 -7 19 -15 0 -10 10 -15 31 -15 16 0 28 -4 25 -9 -4 -5
-1 -11 6 -13 6 -2 -13 -5 -43 -5 -30 0 -57 4 -61 11 -6 8 -8 8 -8 -1 0 -8 -13
-13 -30 -13 -28 0 -40 13 -22 23 4 2 2 3 -4 1 -6 -1 -17 3 -23 9 -6 6 -11 7
-11 1 0 -6 5 -15 12 -22 9 -9 8 -12 -7 -13 -114 -7 -140 -11 -143 -19 -6 -17
-20 -11 -27 10 -3 11 -10 20 -15 20 -5 0 -7 -6 -4 -14 4 -11 0 -13 -16 -9 -12
3 -26 17 -31 31 -11 28 -11 2263 0 2279 3 6 26 17 51 27 25 9 32 13 15 10 -68
-15 -66 -19 -69 90 -2 85 1 103 16 118 24 24 58 24 58 0 0 -11 8 -18 20 -19
11 -1 20 3 20 9 0 6 3 9 6 5 3 -3 26 5 51 19 62 33 88 32 91 -3 2 -32 17 -50
26 -34 4 6 3 11 -3 11 -5 0 -9 14 -9 30 1 18 6 29 12 27 7 -2 11 -35 12 -83z
m-1865 62 c-9 -11 -8 -18 5 -31 16 -16 18 -15 31 7 l14 23 -4 -27 c-3 -19 0
-28 9 -28 8 0 14 5 14 10 0 6 3 9 8 9 23 -4 24 4 2 16 l-25 15 27 -6 c20 -4
29 -2 34 10 5 12 10 13 25 5 11 -5 23 -8 28 -5 5 3 23 1 40 -5 l31 -11 0 -119
c0 -73 -4 -119 -10 -119 -5 0 -10 4 -10 8 0 20 -70 31 -167 27 -80 -4 -102 -2
-106 9 -7 19 24 30 36 14 6 -9 7 -8 3 5 -3 9 -1 17 5 17 6 0 9 7 5 15 -3 9 0
15 9 15 16 0 20 -20 8 -36 -5 -5 -1 -3 7 6 8 8 24 22 35 30 17 14 18 13 12 -2
-3 -10 -2 -18 3 -18 6 0 10 6 10 13 0 8 3 8 9 -2 7 -10 9 -7 8 11 -1 15 -11
29 -25 36 -17 8 -22 7 -21 -1 3 -24 -1 -37 -12 -37 -8 0 -8 5 1 15 7 8 8 15 3
15 -5 0 -8 14 -5 30 3 23 0 30 -13 30 -26 0 -50 -30 -47 -60 2 -15 -5 -37 -17
-51 -20 -23 -20 -23 -21 -3 0 12 7 39 16 60 9 20 13 50 10 65 -4 21 0 31 17
43 28 19 32 20 18 2z m1695 -1 c-25 -19 -36 -19 -36 0 0 10 10 15 28 15 26 -1
26 -1 8 -15z m-1792 -272 c2 -11 10 -17 22 -15 18 3 18 3 1 -15 -15 -16 -19
-16 -27 -3 -5 8 -8 21 -5 28 3 9 -3 11 -23 7 l-27 -6 25 15 c28 16 30 15 34
-11z m2045 8 c7 -5 9 -11 5 -14 -5 -3 -15 1 -22 9 -14 16 -5 18 17 5z m48 3
c-3 -3 -12 -4 -19 -1 -8 3 -5 6 6 6 11 1 17 -2 13 -5z m-2207 -14 c0 -5 -2
-10 -4 -10 -3 0 -8 5 -11 10 -3 6 -1 10 4 10 6 0 11 -4 11 -10z m187 4 c-3 -3
-12 -4 -19 -1 -8 3 -5 6 6 6 11 1 17 -2 13 -5z m-134 -37 c-5 -8 -8 -7 -11 1
-2 7 -9 9 -14 6 -7 -4 -8 -2 -4 4 4 6 13 9 21 6 8 -4 12 -11 8 -17z m29 -28
c-14 -13 -18 -13 -20 -2 -5 21 19 47 29 31 5 -7 1 -19 -9 -29z m103 31 c-3 -5
-10 -10 -16 -10 -5 0 -9 5 -9 10 0 6 7 10 16 10 8 0 12 -4 9 -10z m-248 -42
c-3 -8 -6 -5 -6 6 -1 11 2 17 5 13 3 -3 4 -12 1 -19z m78 2 c3 -5 1 -10 -4
-10 -6 0 -11 5 -11 10 0 6 2 10 4 10 3 0 8 -4 11 -10z m124 -15 c6 -3 11 -10
11 -16 0 -15 -30 -10 -51 10 -20 18 -20 18 5 16 14 -2 30 -6 35 -10z m2220
-22 c-11 -13 -12 -17 -1 -21 10 -3 9 -7 -4 -16 -14 -11 -15 -16 -5 -35 14 -24
6 -101 -10 -101 -11 0 -12 27 -1 34 10 6 3 76 -8 76 -4 0 -5 12 -2 26 3 19 1
25 -7 20 -6 -4 -11 -3 -11 1 0 8 36 29 54 32 5 0 2 -6 -5 -16z m-2329 -63 c0
-5 -2 -10 -4 -10 -3 0 -8 5 -11 10 -3 6 -1 10 4 10 6 0 11 -4 11 -10z m110
-65 c0 -8 -4 -15 -10 -15 -5 0 -7 7 -4 15 4 8 8 15 10 15 2 0 4 -7 4 -15z m61
-19 c-16 -19 -42 -25 -66 -15 -16 6 -14 8 12 8 18 1 38 7 45 15 17 18 25 11 9
-8z m-91 -6 c0 -5 -2 -10 -4 -10 -3 0 -8 5 -11 10 -3 6 -1 10 4 10 6 0 11 -4
11 -10z m2077 -20 c-1 -11 -5 -20 -10 -20 -5 0 -5 10 -2 21 5 16 4 19 -5 14
-9 -5 -11 -4 -6 4 10 16 25 4 23 -19z m-2267 4 c0 -2 -12 -4 -26 -4 -14 0 -23
4 -20 9 6 8 46 4 46 -5z m73 -11 c-7 -2 -19 -2 -25 0 -7 3 -2 5 12 5 14 0 19
-2 13 -5z m2363 -8 c-20 -15 -36 -19 -36 -10 0 5 38 23 50 24 3 0 -4 -6 -14
-14z m-649 -1117 c-2 -653 -4 -799 -15 -810 -14 -13 -14 45 -1 1707 l2 230 8
-165 c5 -91 7 -524 6 -962z m-1190 1055 c-3 -10 -5 -2 -5 17 0 19 2 27 5 18 2
-10 2 -26 0 -35z m1693 34 c0 -8 -80 0 -89 9 -3 3 16 4 42 2 26 -2 47 -6 47
-11z m30 -7 c0 -5 -4 -10 -10 -10 -5 0 -10 5 -10 10 0 6 5 10 10 10 6 0 10 -4
10 -10z m100 6 c0 -3 -4 -8 -10 -11 -5 -3 -10 -1 -10 4 0 6 5 11 10 11 6 0 10
-2 10 -4z m-2180 -21 c0 -8 -7 -15 -15 -15 -9 0 -12 6 -9 15 4 8 10 15 15 15
5 0 9 -7 9 -15z m-45 -24 c-3 -6 -11 -9 -16 -5 -6 3 -9 -2 -7 -12 2 -12 -4
-19 -17 -21 -11 -1 -14 0 -7 3 17 8 15 34 -3 34 -8 0 -15 -6 -15 -14 0 -8 -3
-17 -7 -19 -5 -3 -8 7 -8 22 0 25 3 28 33 25 18 -1 32 2 32 9 0 8 3 8 11 0 6
-6 8 -16 4 -22z m2175 9 c-8 -5 -17 -7 -19 -4 -3 3 1 9 9 14 8 5 17 7 19 4 3
-3 -1 -9 -9 -14z m-1813 -12 c-3 -8 -6 -5 -6 6 -1 11 2 17 5 13 3 -3 4 -12 1
-19z m42 -895 c-1 -483 -5 -891 -9 -908 -5 -16 -7 276 -7 650 2 792 6 1135 13
1135 2 0 4 -395 3 -877z m1230 10 c0 -467 -4 -879 -8 -918 -9 -75 -14 -58 -13
40 1 33 1 432 2 886 0 454 3 829 7 833 3 3 8 6 9 6 2 0 3 -381 3 -847z m-1734
827 c-3 -5 -12 -10 -18 -10 -7 0 -6 4 3 10 19 12 23 12 15 0z m465 -890 c-1
-604 -4 -902 -11 -906 -7 -4 -9 230 -7 737 3 822 7 1069 14 1069 2 0 4 -405 4
-900z m-419 870 c10 0 19 -4 19 -8 0 -5 -13 -7 -29 -4 -22 3 -28 8 -23 20 4
10 7 12 10 4 2 -7 12 -12 23 -12z m89 4 c0 -2 -12 -4 -27 -4 -21 0 -24 3 -14
9 13 8 41 5 41 -5z m2181 -51 c0 -5 2 -20 4 -35 4 -33 -10 -37 -25 -8 -9 17
-8 20 7 20 17 1 16 2 -1 15 -17 13 -18 15 -3 15 9 0 17 -3 18 -7z m83 -39 c9
-22 -3 -32 -14 -14 -12 19 -12 30 -1 30 5 0 12 -7 15 -16z m-49 -34 c0 -24 -2
-27 -13 -16 -7 7 -10 20 -6 29 10 26 19 20 19 -13z m-50 -10 c9 -10 15 -26 12
-34 -3 -8 1 -17 9 -20 9 -3 12 -11 8 -17 -5 -8 3 -10 24 -7 17 2 29 1 26 -4
-3 -4 -21 -8 -41 -8 -20 0 -33 3 -30 7 4 3 -1 12 -10 18 -14 11 -15 16 -5 28
11 13 10 15 -7 10 -12 -3 -19 -9 -16 -13 3 -5 -9 -13 -25 -19 -24 -8 -30 -7
-30 4 0 18 20 31 20 13 1 -8 7 -5 18 8 10 11 23 19 30 16 6 -2 12 1 12 7 0 14
-16 14 -40 1 -25 -13 -37 5 -13 19 26 15 38 13 58 -9z m-2425 -27 c0 -5 -12
-17 -27 -27 -25 -18 -24 -9 2 21 11 14 25 17 25 6z m2323 -26 c-7 -13 -10 -13
-23 1 -13 14 -12 15 3 9 10 -4 17 -2 17 5 0 6 3 9 6 5 3 -3 2 -12 -3 -20z
m-2415 -31 c0 -12 4 -32 7 -44 4 -15 2 -21 -5 -17 -5 3 -10 19 -10 34 0 15 -5
32 -10 37 -7 7 -7 11 3 11 7 0 14 -10 15 -21z m266 -16 c26 0 13 -12 -16 -14
-31 -3 -54 14 -36 25 7 5 17 4 22 -1 6 -6 19 -10 30 -10z m-94 6 c0 -2 -7 -9
-15 -16 -13 -11 -14 -10 -9 4 5 14 24 23 24 12z m-227 -26 c4 -14 -3 -29 -21
-45 -15 -14 -21 -25 -15 -25 7 0 10 -7 7 -15 -4 -8 -10 -12 -15 -9 -5 3 -6 -2
-3 -10 4 -10 0 -13 -14 -10 -19 6 -24 23 -16 62 4 20 7 22 19 12 20 -17 45 4
45 36 0 29 6 31 13 4z m166 -47 c-19 -21 -44 -39 -57 -39 -17 -2 -20 1 -13 10
7 9 7 17 -2 26 -6 8 -2 6 11 -5 23 -19 23 -19 55 13 43 44 47 40 6 -5z m181
16 c0 -6 -4 -7 -10 -4 -5 3 -10 11 -10 16 0 6 5 7 10 4 6 -3 10 -11 10 -16z
m2265 11 c-3 -5 -11 -10 -16 -10 -6 0 -7 5 -4 10 3 6 11 10 16 10 6 0 7 -4 4
-10z m148 -33 c5 -32 4 -35 -9 -23 -15 15 -19 48 -7 59 9 9 9 8 16 -36z
m-2723 25 c0 -4 -5 -13 -12 -20 -7 -7 -8 -12 -2 -12 5 0 11 -11 12 -25 1 -14
-3 -25 -9 -25 -6 0 -8 -9 -4 -19 3 -11 1 -22 -4 -26 -7 -3 -8 0 -5 9 4 9 1 16
-6 16 -8 0 -9 6 -5 18 7 15 12 41 14 80 1 13 21 17 21 4z m2440 -22 c0 -4 9
-10 20 -13 11 -3 20 -11 20 -19 0 -11 -2 -11 -9 1 -5 8 -11 9 -15 3 -9 -14 10
-25 32 -18 9 3 24 1 32 -4 8 -5 11 -10 6 -10 -6 0 -1 -7 10 -15 18 -13 18 -14
1 -15 -22 0 -72 25 -96 49 -24 24 -34 62 -15 54 8 -3 14 -9 14 -13z m-2408
-25 c-6 -34 -12 -32 -12 6 0 16 4 28 9 25 4 -3 6 -17 3 -31z m264 23 c4 -7 3
-8 -4 -4 -7 4 -12 2 -12 -4 0 -6 -5 -8 -10 -5 -11 7 -4 25 10 25 5 0 12 -5 16
-12z m31 -20 c-3 -8 -6 -5 -6 6 -1 11 2 17 5 13 3 -3 4 -12 1 -19z m-232 -38
c3 -6 -1 -7 -9 -4 -18 7 -21 14 -7 14 6 0 13 -4 16 -10z m65 -11 c0 -4 -7 -6
-15 -3 -8 4 -15 10 -15 15 0 4 7 6 15 3 8 -4 15 -10 15 -15z m-229 -12 c-10
-9 -11 -8 -5 6 3 10 9 15 12 12 3 -3 0 -11 -7 -18z m2699 3 c0 -5 -12 -10 -27
-9 -25 0 -26 1 -8 9 27 12 35 12 35 0z m-2535 -30 c-3 -5 -11 -10 -16 -10 -6
0 -7 5 -4 10 3 6 11 10 16 10 6 0 7 -4 4 -10z m-90 -42 c-4 -24 -12 -49 -18
-56 -5 -7 -7 -15 -3 -19 3 -3 6 -1 6 5 0 7 5 12 10 12 15 0 12 -56 -5 -70 -26
-21 -32 -3 -23 72 11 87 14 98 29 98 7 0 9 -14 4 -42z m1556 8 c5 -35 6 -42 8
-56 1 -13 2 -13 11 0 7 10 10 -11 10 -67 0 -49 4 -83 10 -83 9 0 15 30 11 53
-1 5 3 6 8 3 5 -4 12 0 14 6 3 7 6 -2 6 -19 1 -18 6 -33 11 -33 12 0 12 5 10
85 -1 33 2 57 6 53 9 -9 11 -47 13 -201 2 -112 1 -119 -21 -137 l-23 -20 23
-6 c13 -4 22 -14 22 -25 0 -22 -22 -21 -32 1 -5 12 -7 11 -7 -3 -1 -17 -2 -17
-17 -2 -13 12 -15 30 -12 75 3 44 1 61 -9 64 -8 3 -13 0 -12 -7 5 -39 -3 -240
-9 -232 -4 6 -14 11 -22 13 -8 2 -21 9 -28 14 -11 9 -11 13 0 19 10 7 10 9 -1
9 -9 0 -12 9 -9 30 3 17 1 33 -4 36 -4 3 -8 79 -7 170 0 137 3 165 16 172 8 5
16 21 16 36 0 14 5 26 11 26 6 0 5 4 -3 9 -8 5 -21 6 -30 3 -13 -5 -13 -4 -1
9 16 18 39 21 41 5z m26 -8 c-3 -8 -6 -5 -6 6 -1 11 2 17 5 13 3 -3 4 -12 1
-19z m-1480 -4 c-3 -3 -12 -4 -19 -1 -8 3 -5 6 6 6 11 1 17 -2 13 -5z m138 -4
c4 -6 -6 -10 -22 -9 -25 0 -26 1 -8 9 11 5 21 9 22 9 1 1 5 -3 8 -9z m-85 -25
c11 -13 8 -15 -16 -14 -17 1 -22 3 -11 6 9 2 15 9 12 14 -10 15 1 10 15 -6z
m1008 -130 c-2 -69 -7 -125 -11 -125 -9 0 -8 138 0 208 10 74 13 46 11 -83z
m1419 79 c-3 -3 -12 -4 -19 -1 -8 3 -5 6 6 6 11 1 17 -2 13 -5z m53 -14 c0 -5
-2 -10 -4 -10 -3 0 -8 5 -11 10 -3 6 -1 10 4 10 6 0 11 -4 11 -10z m-1140 -20
c0 -5 -5 -10 -11 -10 -5 0 -7 5 -4 10 3 6 8 10 11 10 2 0 4 -4 4 -10z m-1335
-10 c3 -5 2 -10 -4 -10 -5 0 -13 5 -16 10 -3 6 -2 10 4 10 5 0 13 -4 16 -10z
m2615 -10 c0 -5 -5 -10 -11 -10 -5 0 -7 5 -4 10 3 6 8 10 11 10 2 0 4 -4 4
-10z m-30 -4 c0 -2 -7 -7 -16 -10 -8 -3 -12 -2 -9 4 6 10 25 14 25 6z m-103
-38 c-3 -7 -5 -2 -5 12 0 14 2 19 5 13 2 -7 2 -19 0 -25z m-2724 2 c3 -11 1
-18 -4 -14 -5 3 -9 12 -9 20 0 20 7 17 13 -6z m1310 -73 c-4 -221 -5 -237 -24
-259 -11 -12 -21 -19 -24 -16 -8 7 5 38 16 38 5 0 9 5 9 11 0 6 -6 9 -13 6 -8
-3 -14 2 -14 10 0 9 10 18 21 21 20 6 20 6 -3 12 -22 5 -23 7 -8 21 8 9 12 21
7 28 -5 9 -9 7 -13 -8 -3 -12 -12 -21 -21 -21 -12 0 -16 10 -16 36 0 19 4 33
9 30 4 -3 7 -18 4 -33 -3 -26 -3 -26 6 -5 6 12 15 22 21 22 5 0 10 5 10 10 0
6 -5 10 -11 10 -6 0 -17 6 -25 14 -12 13 -11 15 6 21 12 4 17 11 13 18 -12 20
-10 47 4 59 10 8 11 13 2 19 -8 4 -4 9 10 14 13 4 20 12 17 20 -3 8 0 12 7 9
8 -3 11 -31 10 -87z m-1343 63 c9 -16 8 -18 -5 -14 -8 4 -15 12 -15 20 0 20 7
17 20 -6z m130 -25 c0 -25 -3 -45 -8 -45 -4 0 -6 20 -4 45 2 25 6 45 8 45 2 0
4 -20 4 -45z m2660 25 c0 -11 -4 -20 -8 -20 -4 0 -8 9 -8 20 0 11 4 20 8 20 4
0 8 -9 8 -20z m-1700 -30 c0 -16 5 -30 10 -30 6 0 10 -5 10 -12 0 -21 -28 14
-35 45 -5 17 -3 27 4 27 6 0 11 -13 11 -30z m1564 5 c3 -8 1 -15 -3 -15 -5 0
-11 7 -15 15 -3 8 -1 15 3 15 5 0 11 -7 15 -15z m51 -5 c3 -5 1 -10 -4 -10 -6
0 -11 5 -11 10 0 6 2 10 4 10 3 0 8 -4 11 -10z m45 -27 c-11 -17 -11 -17 -6 0
3 10 6 24 7 30 0 9 2 9 5 0 3 -7 0 -20 -6 -30z m-2750 7 c0 -5 -2 -10 -4 -10
-3 0 -8 5 -11 10 -3 6 -1 10 4 10 6 0 11 -4 11 -10z m41 -14 c5 3 9 -2 9 -10
0 -9 -4 -16 -10 -16 -16 0 -12 -18 5 -23 11 -4 11 -5 -2 -3 -13 1 -18 11 -19
36 -1 19 1 29 3 22 3 -6 9 -10 14 -6z m1326 -8 c-3 -8 -6 -5 -6 6 -1 11 2 17
5 13 3 -3 4 -12 1 -19z m1193 -7 c0 -5 -7 -12 -16 -15 -14 -5 -15 -4 -4 9 14
17 20 19 20 6z m-1478 -23 c-7 -7 -12 -8 -12 -2 0 14 12 26 19 19 2 -3 -1 -11
-7 -17z m95 -10 c-3 -7 -5 -2 -5 12 0 14 2 19 5 13 2 -7 2 -19 0 -25z m220 10
c-3 -8 -6 -5 -6 6 -1 11 2 17 5 13 3 -3 4 -12 1 -19z m1117 1 c-3 -5 -10 -7
-15 -3 -5 3 -7 10 -3 15 3 5 10 7 15 3 5 -3 7 -10 3 -15z m-2386 -34 c0 -24
-4 -42 -9 -39 -12 7 -11 84 1 84 5 0 9 -20 8 -45z m1869 13 c-3 -7 -5 -2 -5
12 0 14 2 19 5 13 2 -7 2 -19 0 -25z m760 0 c-3 -8 -6 -5 -6 6 -1 11 2 17 5
13 3 -3 4 -12 1 -19z m-2740 -20 c-3 -8 -6 -5 -6 6 -1 11 2 17 5 13 3 -3 4
-12 1 -19z m1073 -35 c-5 -19 -10 -36 -12 -38 -3 -3 -2 70 2 95 0 3 4 -1 9 -9
5 -7 5 -29 1 -48z m507 35 c-3 -8 -6 -5 -6 6 -1 11 2 17 5 13 3 -3 4 -12 1
-19z m1143 3 c0 -10 -25 -21 -48 -21 -15 1 -14 3 2 15 22 17 46 20 46 6z
m-2749 -44 c-8 -8 -11 -7 -11 4 0 20 13 34 18 19 3 -7 -1 -17 -7 -23z m2006
-59 c-2 -18 -4 -4 -4 32 0 36 2 50 4 33 2 -18 2 -48 0 -65z m760 55 c-3 -10
-5 -4 -5 12 0 17 2 24 5 18 2 -7 2 -21 0 -30z m-2636 -46 c-13 -13 -15 1 -4
30 7 17 8 17 11 -1 2 -10 -1 -23 -7 -29z m1669 23 c0 -5 -7 -10 -16 -10 -8 0
-12 5 -9 10 3 6 10 10 16 10 5 0 9 -4 9 -10z m-222 -25 c-3 -3 -9 2 -12 12 -6
14 -5 15 5 6 7 -7 10 -15 7 -18z m1192 15 c0 -5 -2 -10 -4 -10 -3 0 -8 5 -11
10 -3 6 -1 10 4 10 6 0 11 -4 11 -10z m-1486 -35 c-4 -8 -8 -15 -10 -15 -2 0
-4 7 -4 15 0 8 4 15 10 15 5 0 7 -7 4 -15z m1546 -11 c0 -22 -16 -17 -17 6 -1
11 2 18 8 15 5 -4 9 -13 9 -21z m-41 0 c13 9 14 -4 1 -24 -11 -17 -15 -14 -24
20 -5 17 -4 21 2 11 5 -7 15 -10 21 -7z m-1240 -68 c-9 -8 -10 -7 -5 7 3 10 7
28 7 40 2 16 3 14 6 -7 3 -16 -1 -34 -8 -40z m-264 44 c3 -5 1 -10 -4 -10 -6
0 -11 5 -11 10 0 6 2 10 4 10 3 0 8 -4 11 -10z m212 -22 c-3 -7 -5 -2 -5 12 0
14 2 19 5 13 2 -7 2 -19 0 -25z m298 12 c0 -7 -7 -15 -15 -17 -13 -4 -13 -3 0
6 13 10 13 12 0 22 -13 9 -13 10 0 6 8 -2 15 -10 15 -17z m212 -17 c-3 -10 -5
-4 -5 12 0 17 2 24 5 18 2 -7 2 -21 0 -30z m-1982 -11 c-3 -3 -11 0 -18 7 -9
10 -8 11 6 5 10 -3 15 -9 12 -12z m2748 -7 c-3 -9 -8 -14 -10 -11 -3 3 -2 9 2
15 9 16 15 13 8 -4z m-2693 1 c0 -2 -7 -6 -15 -10 -8 -3 -15 -1 -15 4 0 6 7
10 15 10 8 0 15 -2 15 -4z m-22 -51 c-3 -3 -13 7 -23 22 l-17 28 23 -22 c12
-12 20 -25 17 -28z m819 -22 c-2 -16 -4 -5 -4 22 0 28 2 40 4 28 2 -13 2 -35
0 -50z m1130 -30 c-2 -21 -4 -6 -4 32 0 39 2 55 4 38 2 -18 2 -50 0 -70z
m-337 77 c0 -5 -2 -10 -4 -10 -3 0 -8 5 -11 10 -3 6 -1 10 4 10 6 0 11 -4 11
-10z m-1620 -60 c-9 -6 -9 -9 0 -15 14 -9 26 2 33 30 l5 20 1 -20 c0 -11 -6
-28 -14 -39 -14 -18 -14 -18 -37 0 -30 24 -27 59 4 43 15 -8 17 -13 8 -19z
m827 -262 c-1 -46 -3 -9 -3 82 0 91 2 128 3 83 2 -46 2 -120 0 -165z m1130
140 c-2 -13 -4 -3 -4 22 0 25 2 35 4 23 2 -13 2 -33 0 -45z m658 32 c4 -6 -5
-10 -19 -10 -14 0 -26 5 -26 10 0 6 9 10 19 10 11 0 23 -4 26 -10z m-658 -207
c-2 -27 -3 -5 -3 47 0 52 1 74 3 48 2 -27 2 -69 0 -95z m628 8 c-3 -5 -1 -12
5 -16 5 -3 10 -12 10 -18 0 -8 -3 -8 -8 -2 -4 6 -15 10 -24 10 -10 0 -17 5
-15 10 1 6 5 9 10 8 4 -2 7 2 7 7 0 6 5 10 11 10 5 0 8 -4 4 -9z m-34 -37 c12
-14 11 -16 -5 -13 -11 2 -21 10 -24 17 -5 17 13 15 29 -4z m252 2 c4 -10 1
-13 -9 -9 -15 6 -19 23 -5 23 5 0 11 -7 14 -14z m-1976 -48 c-3 -8 -6 -5 -6 6
-1 11 2 17 5 13 3 -3 4 -12 1 -19z m1724 1 c11 -11 15 -19 7 -18 -30 4 -40 -2
-36 -19 3 -12 -1 -18 -12 -18 -15 0 -16 4 -7 23 6 13 15 23 20 23 5 0 4 7 -3
15 -19 23 6 19 31 -6z m57 -11 c-11 -11 -22 -18 -24 -15 -3 3 2 11 10 20 8 8
12 18 8 21 -3 4 1 4 10 1 15 -6 14 -9 -4 -27z m62 -22 c0 -2 -7 -6 -15 -10 -8
-3 -15 -1 -15 4 0 6 7 10 15 10 8 0 15 -2 15 -4z m147 -18 c-3 -8 -6 -5 -6 6
-1 11 2 17 5 13 3 -3 4 -12 1 -19z m-1990 -250 c-2 -29 -3 -8 -3 47 0 55 1 79
3 53 2 -26 2 -71 0 -100z m1130 45 c-2 -21 -4 -6 -4 32 0 39 2 55 4 38 2 -18
2 -50 0 -70z m903 66 c0 -5 -8 -9 -17 -8 -11 0 -13 3 -5 6 6 2 9 10 6 15 -4 7
-2 8 4 4 7 -4 12 -11 12 -17z m-345 -9 c3 -5 2 -10 -4 -10 -5 0 -13 5 -16 10
-3 6 -2 10 4 10 5 0 13 -4 16 -10z m61 -12 c4 -6 2 -14 -4 -16 -7 -2 -12 -12
-12 -23 0 -10 -5 -19 -11 -19 -6 0 -8 7 -5 16 3 9 6 24 6 35 0 21 15 25 26 7z
m255 -12 c2 -33 11 -61 27 -85 35 -50 35 -55 1 -30 -19 13 -43 29 -54 35 -18
10 -23 32 -6 27 3 -1 6 16 5 37 0 28 3 37 13 33 7 -3 13 -10 14 -17z m-351
-26 c0 -5 -5 -10 -11 -10 -5 0 -7 5 -4 10 3 6 8 10 11 10 2 0 4 -4 4 -10z m6
-36 c-3 -8 -2 -13 3 -10 5 3 14 0 20 -8 9 -11 6 -18 -15 -35 -32 -25 -36 -23
-39 27 -2 31 1 38 17 39 14 1 18 -3 14 -13z m71 -120 c-3 -3 -12 -4 -19 -1 -8
3 -5 6 6 6 11 1 17 -2 13 -5z m-1767 -24 c-19 -12 -63 -13 -56 -2 3 5 20 9 38
10 23 1 28 -2 18 -8z m2080 -46 c0 -15 -6 -24 -15 -24 -8 0 -15 -4 -15 -9 0
-5 7 -14 15 -21 8 -7 15 -18 15 -24 0 -16 -49 46 -50 63 0 7 6 11 14 8 16 -6
30 19 19 35 -3 7 -1 8 5 4 7 -4 12 -18 12 -32z m39 -7 c1 -5 -3 -5 -9 -2 -5 3
-10 16 -9 28 0 21 1 21 9 2 5 -11 9 -24 9 -28z m-614 3 c4 -6 10 -8 14 -6 4 3
8 -1 8 -9 0 -8 -4 -15 -9 -15 -4 0 -8 5 -8 11 0 6 -7 9 -15 6 -15 -7 -29 6
-18 17 9 9 21 7 28 -4z m-118 -16 c3 -9 -2 -23 -13 -32 -17 -16 -17 -16 -4 1
11 15 10 20 -6 32 -18 13 -18 14 -1 15 10 0 20 -7 24 -16z m626 -69 c-7 -21
-13 -19 -13 6 0 11 4 18 10 14 5 -3 7 -12 3 -20z m-530 0 c4 -8 2 -17 -3 -20
-6 -4 -10 3 -10 14 0 25 6 27 13 6z m74 -7 c-3 -8 -6 -5 -6 6 -1 11 2 17 5 13
3 -3 4 -12 1 -19z m-27 -2 c0 -8 -5 -18 -12 -22 -7 -5 -9 -2 -5 9 3 9 1 18 -6
21 -7 2 -4 5 6 5 9 1 17 -5 17 -13z m70 -5 c0 -5 -7 -11 -14 -14 -10 -4 -13
-1 -9 9 6 15 23 19 23 5z"/>
<path d="M2260 2785 c30 -17 80 -19 80 -4 0 7 -11 9 -30 6 -16 -4 -32 -2 -35
3 -3 6 -14 10 -23 10 -12 -1 -10 -5 8 -15z"/>
<path d="M2390 2790 c0 -5 5 -10 11 -10 5 0 7 5 4 10 -3 6 -8 10 -11 10 -2 0
-4 -4 -4 -10z"/>
<path d="M2255 2760 c3 -5 11 -10 16 -10 6 0 7 5 4 10 -3 6 -11 10 -16 10 -6
0 -7 -4 -4 -10z"/>
<path d="M2396 2723 c-16 -21 -16 -25 -4 -21 9 4 21 1 27 -5 8 -8 11 -6 11 7
0 10 -5 14 -11 10 -8 -4 -9 0 -4 15 8 27 4 26 -19 -6z"/>
<path d="M2240 2710 c0 -5 5 -10 11 -10 5 0 7 5 4 10 -3 6 -8 10 -11 10 -2 0
-4 -4 -4 -10z"/>
<path d="M2345 2700 c10 -11 20 -20 23 -20 3 0 -3 9 -13 20 -10 11 -20 20 -23
20 -3 0 3 -9 13 -20z"/>
<path d="M2240 2660 c0 -6 7 -13 15 -16 8 -4 12 -11 8 -17 -4 -6 -1 -7 6 -3 8
5 25 -7 47 -31 19 -21 31 -29 26 -19 -7 14 -6 27 5 43 9 13 14 26 11 28 -3 3
-11 -6 -18 -20 -7 -14 -17 -25 -22 -25 -11 0 -10 18 2 25 13 8 13 25 -1 25 -5
0 -7 -4 -4 -10 11 -18 -15 -11 -37 10 -24 22 -38 26 -38 10z"/>
<path d="M2365 2586 c0 -13 3 -22 8 -19 4 2 7 13 7 24 0 10 -3 19 -7 19 -5 0
-8 -11 -8 -24z"/>
<path d="M2277 2534 c-14 -19 -15 -24 -4 -24 8 0 17 10 20 22 8 30 5 30 -16 2z"/>
<path d="M2279 2487 c6 -8 8 -17 4 -20 -3 -4 -1 -7 5 -7 14 0 14 2 6 24 -3 9
-11 16 -16 16 -7 0 -6 -5 1 -13z"/>
<path d="M2240 2466 c0 -27 17 -43 30 -30 10 11 -6 54 -20 54 -5 0 -10 -11
-10 -24z"/>
<path d="M2325 2410 c3 -5 8 -10 11 -10 2 0 4 5 4 10 0 6 -5 10 -11 10 -5 0
-7 -4 -4 -10z"/>
<path d="M2295 2400 c3 -5 11 -10 16 -10 6 0 7 5 4 10 -3 6 -11 10 -16 10 -6
0 -7 -4 -4 -10z"/>
<path d="M2357 2350 c-3 -11 -1 -20 4 -20 5 0 9 9 9 20 0 11 -2 20 -4 20 -2 0
-6 -9 -9 -20z"/>
<path d="M2400 2211 c-14 -27 4 -136 20 -126 7 4 6 13 0 25 -15 28 18 60 48
47 15 -7 25 -5 37 7 9 9 22 16 28 16 7 1 -3 7 -22 15 -18 8 -37 13 -41 10 -4
-3 -13 2 -20 10 -17 21 -37 19 -50 -4z"/>
<path d="M2250 2150 c0 -5 5 -10 11 -10 5 0 7 5 4 10 -3 6 -8 10 -11 10 -2 0
-4 -4 -4 -10z"/>
<path d="M2440 2119 c0 -6 7 -9 15 -6 21 9 29 -11 14 -31 -11 -13 -9 -13 8 2
17 14 26 16 36 8 8 -7 18 -7 27 -2 11 7 12 10 2 10 -7 0 -10 4 -7 10 4 6 -6 8
-25 6 -17 -2 -33 0 -36 5 -8 13 -34 11 -34 -2z"/>
<path d="M2550 2121 c0 -15 18 -23 25 -11 4 6 11 7 17 4 7 -4 8 -2 4 4 -9 14
-46 16 -46 3z"/>
<path d="M2585 2090 c-3 -5 -1 -10 4 -10 6 0 11 5 11 10 0 6 -2 10 -4 10 -3 0
-8 -4 -11 -10z"/>
<path d="M2168 2063 c6 -2 18 -2 25 0 6 3 1 5 -13 5 -14 0 -19 -2 -12 -5z"/>
<path d="M2438 1978 c-3 -7 -2 -22 0 -35 4 -20 6 -21 20 -7 12 13 13 17 2 24
-7 4 -9 13 -6 19 4 6 3 11 -3 11 -5 0 -11 -5 -13 -12z"/>
<path d="M2633 1933 c-23 -9 -14 -31 12 -29 14 0 25 2 25 3 0 1 -3 8 -6 17 -6
17 -11 18 -31 9z"/>
<path d="M2475 1920 c3 -5 8 -10 11 -10 2 0 4 5 4 10 0 6 -5 10 -11 10 -5 0
-7 -4 -4 -10z"/>
<path d="M2540 1920 c0 -5 -8 -7 -17 -3 -15 5 -16 3 -5 -8 10 -11 15 -10 29 4
11 11 13 17 5 17 -7 0 -12 -4 -12 -10z"/>
<path d="M2580 1920 c-20 -12 -10 -19 14 -10 11 3 15 9 10 13 -6 3 -16 2 -24
-3z"/>
<path d="M2445 1879 c-11 -17 1 -21 15 -4 8 9 8 15 2 15 -6 0 -14 -5 -17 -11z"/>
<path d="M2480 1750 c0 -5 7 -10 16 -10 8 0 12 5 9 10 -3 6 -10 10 -16 10 -5
0 -9 -4 -9 -10z"/>
<path d="M2529 1726 c-9 -6 -14 -17 -12 -23 7 -19 21 -16 19 5 -1 11 5 16 17
14 20 -3 23 4 4 11 -7 3 -20 0 -28 -7z"/>
<path d="M2435 1720 c-3 -5 -1 -10 4 -10 6 0 11 5 11 10 0 6 -2 10 -4 10 -3 0
-8 -4 -11 -10z"/>
<path d="M2600 1705 c-13 -14 -20 -28 -16 -32 4 -4 11 -1 15 6 6 9 11 10 15 2
4 -6 28 -11 54 -11 37 1 43 3 30 11 -10 5 -24 9 -30 8 -30 -4 -48 2 -48 15 0
8 8 17 18 19 13 4 14 5 1 6 -8 0 -26 -10 -39 -24z"/>
<path d="M2568 1709 c-19 -11 -24 -29 -8 -29 5 0 14 9 20 20 12 23 12 23 -12
9z"/>
<path d="M2494 1702 c3 -5 0 -13 -6 -15 -8 -3 -6 -6 5 -6 19 -1 23 14 5 25 -6
4 -8 3 -4 -4z"/>
<path d="M2640 1651 c0 -6 -6 -11 -14 -11 -8 0 -18 -4 -21 -10 -9 -15 18 -12
40 3 12 10 14 16 7 21 -7 4 -12 2 -12 -3z"/>
<path d="M2400 1632 c0 -12 19 -26 26 -19 2 2 -2 10 -11 17 -9 8 -15 8 -15 2z"/>
<path d="M2455 1630 c-3 -6 -2 -9 3 -8 5 2 24 -12 41 -29 17 -18 31 -28 31
-22 0 5 5 7 10 4 6 -3 10 -2 10 3 0 6 -17 21 -37 33 -51 32 -50 32 -58 19z"/>
<path d="M2562 1585 c0 -16 2 -22 5 -12 2 9 2 23 0 30 -3 6 -5 -1 -5 -18z"/>
<path d="M2410 1588 c0 -15 13 -38 22 -38 5 0 6 5 3 11 -4 6 1 16 11 24 17 12
17 13 -9 12 -15 -1 -27 -5 -27 -9z"/>
<path d="M2378 1560 c-3 -22 -2 -27 8 -19 6 5 10 19 7 29 -7 27 -10 25 -15
-10z"/>
<path d="M2480 1575 c7 -9 15 -13 17 -11 7 7 -7 26 -19 26 -6 0 -6 -6 2 -15z"/>
<path d="M2705 1570 c3 -5 8 -10 11 -10 2 0 4 5 4 10 0 6 -5 10 -11 10 -5 0
-7 -4 -4 -10z"/>
<path d="M2455 1560 c3 -5 8 -10 11 -10 2 0 4 5 4 10 0 6 -5 10 -11 10 -5 0
-7 -4 -4 -10z"/>
<path d="M2426 1530 c-13 -4 -16 -9 -9 -13 7 -4 15 -2 19 4 8 13 24 -7 24 -31
0 -13 -1 -13 -10 0 -5 8 -12 11 -16 7 -4 -4 -16 0 -26 10 -20 18 -24 6 -5 -17
7 -8 26 -15 42 -15 23 0 31 5 33 22 4 26 -24 44 -52 33z"/>
<path d="M2432 1390 c-7 -11 -8 -20 -3 -20 9 0 24 30 18 36 -1 2 -8 -6 -15
-16z"/>
<path d="M2429 1346 c9 -11 9 -15 -1 -19 -10 -4 -10 -8 2 -16 13 -10 13 -12 0
-22 -13 -9 -12 -10 3 -5 9 3 17 1 17 -4 0 -10 -13 -14 -40 -11 -12 2 -13 0 -1
-7 15 -11 48 -5 57 10 3 5 -2 18 -12 29 -19 21 -13 38 8 22 7 -6 25 -13 40
-17 19 -4 26 -11 22 -21 -4 -8 -2 -15 4 -15 5 0 12 9 15 21 3 12 3 18 0 15 -9
-9 -44 14 -38 24 3 6 -1 7 -9 4 -8 -3 -29 1 -47 10 -23 12 -28 12 -20 2z"/>
<path d="M2540 1350 c0 -5 7 -10 16 -10 8 0 12 5 9 10 -3 6 -10 10 -16 10 -5
0 -9 -4 -9 -10z"/>
<path d="M2490 1290 c0 -5 5 -10 11 -10 5 0 7 5 4 10 -3 6 -8 10 -11 10 -2 0
-4 -4 -4 -10z"/>
<path d="M2600 1250 c0 -5 5 -10 10 -10 6 0 10 5 10 10 0 6 -4 10 -10 10 -5 0
-10 -4 -10 -10z"/>
<path d="M2688 1223 c-20 -5 -24 -23 -5 -23 17 0 41 17 31 22 -5 2 -17 3 -26
1z"/>
<path d="M2620 1210 c0 -5 7 -10 16 -10 8 0 12 5 9 10 -3 6 -10 10 -16 10 -5
0 -9 -4 -9 -10z"/>
<path d="M2553 1164 c-15 -13 -23 -27 -19 -32 4 -4 12 1 17 11 6 9 15 17 20
17 6 0 7 -6 3 -12 -5 -8 0 -7 11 2 17 14 18 13 12 -2 -3 -10 -3 -18 2 -18 11
0 44 50 34 51 -41 7 -58 3 -80 -17z"/>
<path d="M2495 1140 c-3 -5 -1 -10 4 -10 6 0 11 5 11 10 0 6 -2 10 -4 10 -3 0
-8 -4 -11 -10z"/>
<path d="M2555 1090 c-3 -5 1 -10 10 -10 9 0 13 5 10 10 -3 6 -8 10 -10 10 -2
0 -7 -4 -10 -10z"/>
<path d="M2600 1082 c0 -5 7 -13 16 -16 10 -4 14 -1 12 6 -5 15 -28 23 -28 10z"/>
<path d="M2651 1056 c-10 -12 -8 -13 8 -9 12 3 21 9 21 14 0 14 -16 11 -29 -5z"/>
<path d="M2470 1056 c0 -2 9 -6 20 -9 11 -3 20 -1 20 4 0 5 -9 9 -20 9 -11 0
-20 -2 -20 -4z"/>
<path d="M2566 1043 c-9 -21 17 -48 39 -39 15 5 14 8 -2 31 -21 29 -29 31 -37
8z"/>
<path d="M2600 1052 c0 -12 19 -26 26 -19 2 2 -2 10 -11 17 -9 8 -15 8 -15 2z"/>
<path d="M2513 995 c10 -20 13 -22 18 -7 4 9 1 20 -5 24 -20 14 -24 8 -13 -17z"/>
<path d="M2437 889 c7 -7 15 -10 18 -7 3 3 -2 9 -12 12 -14 6 -15 5 -6 -5z"/>
<path d="M2506 885 c-3 -8 -1 -15 4 -15 6 0 10 7 10 15 0 8 -2 15 -4 15 -2 0
-6 -7 -10 -15z"/>
<path d="M2350 809 c0 -5 5 -7 10 -4 6 3 10 8 10 11 0 2 -4 4 -10 4 -5 0 -10
-5 -10 -11z"/>
<path d="M2495 780 c3 -5 8 -10 11 -10 2 0 4 5 4 10 0 6 -5 10 -11 10 -5 0 -7
-4 -4 -10z"/>
<path d="M2440 762 c0 -16 41 -62 55 -62 18 0 32 23 17 28 -6 2 -8 10 -5 18 3
8 1 14 -5 14 -5 0 -13 -8 -17 -17 -6 -16 -8 -16 -26 6 -10 13 -19 19 -19 13z"/>
<path d="M2460 760 c0 -5 5 -10 10 -10 6 0 10 5 10 10 0 6 -4 10 -10 10 -5 0
-10 -4 -10 -10z"/>
<path d="M2540 710 c0 -5 5 -10 10 -10 6 0 10 5 10 10 0 6 -4 10 -10 10 -5 0
-10 -4 -10 -10z"/>
<path d="M2475 680 c3 -5 11 -10 16 -10 6 0 7 5 4 10 -3 6 -11 10 -16 10 -6 0
-7 -4 -4 -10z"/>
<path d="M2395 620 c-3 -5 -15 -10 -26 -10 -20 0 -26 -15 -9 -25 6 -3 10 -1
10 5 0 6 5 8 11 5 6 -4 19 2 30 14 15 16 17 21 5 21 -8 0 -18 -4 -21 -10z"/>
<path d="M2440 620 c0 -6 7 -10 15 -10 8 0 15 2 15 4 0 2 -7 6 -15 10 -8 3
-15 1 -15 -4z"/>
<path d="M2595 619 c-4 -6 -5 -12 -2 -15 2 -3 7 2 10 11 7 17 1 20 -8 4z"/>
<path d="M2485 600 c3 -5 8 -10 11 -10 2 0 4 5 4 10 0 6 -5 10 -11 10 -5 0 -7
-4 -4 -10z"/>
<path d="M2520 600 c0 -5 5 -10 11 -10 5 0 7 5 4 10 -3 6 -8 10 -11 10 -2 0
-4 -4 -4 -10z"/>
<path d="M2428 588 c16 -16 15 -33 -1 -20 -7 6 -23 9 -35 5 -21 -5 -21 -6 -5
-19 17 -13 17 -14 -2 -7 -11 3 -23 11 -27 17 -4 6 -8 -1 -8 -16 0 -52 90 -66
146 -23 39 30 42 41 13 48 -15 4 -18 2 -10 -7 8 -10 4 -11 -19 -8 -21 3 -30
10 -30 23 0 11 -7 19 -17 19 -13 0 -14 -3 -5 -12z"/>
<path d="M2470 479 c0 -8 -11 -9 -32 -5 l-33 6 24 -16 c21 -15 22 -18 6 -26
-11 -7 -21 -6 -28 1 -6 6 -16 11 -21 11 -6 0 -3 -5 7 -11 12 -7 16 -17 12 -32
-4 -12 -3 -17 2 -12 4 6 22 18 38 27 17 9 30 23 30 30 0 7 4 19 8 26 5 7 4 12
-2 12 -6 0 -11 -5 -11 -11z"/>
<path d="M2420 370 c0 -5 10 -10 23 -10 18 0 19 2 7 10 -19 13 -30 13 -30 0z"/>
<path d="M2300 356 c0 -2 7 -7 16 -10 8 -3 12 -2 9 4 -6 10 -25 14 -25 6z"/>
<path d="M691 2843 c-11 -12 -10 -14 5 -11 14 2 18 -2 16 -17 -4 -20 -4 -20
11 0 9 11 15 20 14 20 -1 1 -9 6 -17 12 -11 8 -18 7 -29 -4z"/>
<path d="M665 2800 c-11 -4 -23 -6 -27 -3 -4 2 -5 -3 -2 -11 8 -21 40 -20 48
0 8 21 6 23 -19 14z"/>
<path d="M732 2780 c0 -14 2 -19 5 -12 2 6 2 18 0 25 -3 6 -5 1 -5 -13z"/>
<path d="M695 2770 c3 -5 11 -10 16 -10 6 0 7 5 4 10 -3 6 -11 10 -16 10 -6 0
-7 -4 -4 -10z"/>
<path d="M1712 1605 c0 -16 2 -22 5 -12 2 9 2 23 0 30 -3 6 -5 -1 -5 -18z"/>
<path d="M1660 1601 c0 -5 7 -12 16 -15 14 -5 15 -4 4 9 -14 17 -20 19 -20 6z"/>
<path d="M1733 1461 c0 -11 5 -17 9 -15 11 7 10 34 -1 34 -6 0 -9 -9 -8 -19z"/>
<path d="M1785 1340 c-3 -5 -1 -10 4 -10 6 0 11 5 11 10 0 6 -2 10 -4 10 -3 0
-8 -4 -11 -10z"/>
<path d="M2530 413 c0 -3 6 -11 14 -18 12 -12 16 -12 26 0 7 8 11 15 9 16 -18
4 -49 5 -49 2z"/>
<path d="M1160 2989 c0 -5 5 -7 10 -4 6 3 10 8 10 11 0 2 -4 4 -10 4 -5 0 -10
-5 -10 -11z"/>
<path d="M2310 2985 c0 -8 4 -15 9 -15 5 0 13 -9 16 -20 3 -11 10 -20 14 -20
10 0 -21 69 -31 70 -5 0 -8 -7 -8 -15z"/>
<path d="M617 2494 c-3 -20 -2 -23 7 -12 6 7 17 19 25 26 13 10 12 12 -6 12
-14 0 -22 -8 -26 -26z"/>
<path d="M607 2414 c-4 -4 -7 -14 -7 -23 0 -11 3 -12 11 -4 6 6 10 16 7 23 -2
6 -7 8 -11 4z"/>
<path d="M690 2336 c0 -9 5 -16 10 -16 6 0 10 4 10 9 0 6 -4 13 -10 16 -5 3
-10 -1 -10 -9z"/>
<path d="M610 2319 c0 -5 5 -7 10 -4 6 3 10 8 10 11 0 2 -4 4 -10 4 -5 0 -10
-5 -10 -11z"/>
<path d="M690 2280 c0 -5 5 -10 10 -10 6 0 10 5 10 10 0 6 -4 10 -10 10 -5 0
-10 -4 -10 -10z"/>
<path d="M593 2216 c5 -16 27 -19 27 -3 0 7 -7 14 -15 14 -9 0 -14 -5 -12 -11z"/>
<path d="M565 2150 c-3 -5 -1 -10 4 -10 6 0 11 5 11 10 0 6 -2 10 -4 10 -3 0
-8 -4 -11 -10z"/>
<path d="M530 2088 c0 -11 38 -10 44 1 3 5 -5 8 -19 7 -14 0 -25 -4 -25 -8z"/>
<path d="M491 2055 c0 -11 4 -29 9 -40 8 -18 9 -18 9 5 0 14 -4 32 -9 40 -8
12 -10 12 -9 -5z"/>
<path d="M530 2025 c-8 -9 -8 -15 -2 -15 12 0 26 19 19 26 -2 2 -10 -2 -17
-11z"/>
<path d="M660 2022 c0 -10 50 -35 57 -28 3 2 -9 12 -26 21 -17 8 -31 12 -31 7z"/>
<path d="M618 2003 c6 -2 18 -2 25 0 6 3 1 5 -13 5 -14 0 -19 -2 -12 -5z"/>
<path d="M405 1979 c-4 -6 -5 -13 -2 -16 7 -7 27 6 27 18 0 12 -17 12 -25 -2z"/>
<path d="M448 1973 c7 -3 16 -2 19 1 4 3 -2 6 -13 5 -11 0 -14 -3 -6 -6z"/>
<path d="M510 1950 c0 -5 5 -10 10 -10 6 0 10 5 10 10 0 6 -4 10 -10 10 -5 0
-10 -4 -10 -10z"/>
<path d="M510 1869 c0 -5 5 -7 10 -4 6 3 10 8 10 11 0 2 -4 4 -10 4 -5 0 -10
-5 -10 -11z"/>
<path d="M2950 1820 c0 -5 5 -10 11 -10 5 0 7 5 4 10 -3 6 -8 10 -11 10 -2 0
-4 -4 -4 -10z"/>
<path d="M2958 1775 c-3 -14 -1 -25 3 -25 5 0 9 11 9 25 0 14 -2 25 -4 25 -2
0 -6 -11 -8 -25z"/>
<path d="M670 1759 c0 -5 5 -7 10 -4 6 3 10 8 10 11 0 2 -4 4 -10 4 -5 0 -10
-5 -10 -11z"/>
<path d="M633 1728 c-13 -6 -23 -15 -23 -20 0 -5 14 -2 30 7 45 23 38 35 -7
13z"/>
<path d="M520 1723 c0 -11 22 -23 41 -23 5 0 9 5 9 11 0 6 -6 9 -14 6 -7 -3
-19 0 -25 6 -8 8 -11 8 -11 0z"/>
<path d="M432 1678 c-9 -4 18 -7 61 -6 43 0 75 3 72 7 -9 8 -112 8 -133 -1z"/>
<path d="M600 1670 c-9 -6 -10 -10 -3 -10 6 0 15 5 18 10 8 12 4 12 -15 0z"/>
<path d="M478 1573 c7 -3 16 -2 19 1 4 3 -2 6 -13 5 -11 0 -14 -3 -6 -6z"/>
<path d="M403 1547 c-2 -4 1 -14 7 -22 8 -10 9 -15 2 -15 -6 0 -14 5 -17 10
-3 6 -14 10 -23 10 -11 -1 -8 -6 11 -16 28 -15 52 -11 41 7 -3 6 2 16 11 23
15 11 14 12 -5 12 -12 0 -24 -4 -27 -9z"/>
<path d="M465 1550 c-3 -5 1 -10 9 -10 8 0 18 5 21 10 3 6 -1 10 -9 10 -8 0
-18 -4 -21 -10z"/>
<path d="M502 1528 c-5 -20 -17 -24 -27 -8 -8 12 -35 13 -35 1 0 -13 64 -23
68 -11 2 5 9 10 16 10 7 0 13 6 13 13 0 21 -29 16 -35 -5z"/>
<path d="M340 1510 c0 -5 5 -10 11 -10 5 0 7 5 4 10 -3 6 -8 10 -11 10 -2 0
-4 -4 -4 -10z"/>
<path d="M461 1481 c-8 -5 -21 -7 -29 -3 -26 10 -3 -17 28 -33 25 -13 29 -13
24 -1 -3 8 0 17 5 21 6 3 9 11 6 16 -8 11 -16 11 -34 0z"/>
<path d="M514 1467 c-6 -7 -9 -18 -6 -25 3 -9 8 -8 18 5 22 30 12 48 -12 20z"/>
<path d="M2960 1475 c0 -5 5 -17 10 -25 5 -8 10 -10 10 -5 0 6 -5 17 -10 25
-5 8 -10 11 -10 5z"/>
<path d="M405 1430 c3 -5 11 -10 16 -10 6 0 7 5 4 10 -3 6 -11 10 -16 10 -6 0
-7 -4 -4 -10z"/>
<path d="M356 1415 c4 -8 10 -12 15 -9 11 6 2 24 -11 24 -5 0 -7 -7 -4 -15z"/>
<path d="M320 1404 c-13 -16 -13 -17 3 -11 16 6 16 5 2 -17 -16 -23 -15 -24
20 -28 27 -3 39 0 46 13 12 24 11 35 -2 22 -8 -8 -17 -5 -33 14 -21 24 -23 24
-36 7z"/>
<path d="M444 1413 c-6 -5 -14 -17 -18 -27 -6 -18 -6 -19 11 -4 18 16 93 20
93 5 0 -4 0 -16 0 -27 0 -13 -7 -20 -20 -20 -11 0 -20 5 -20 10 0 6 5 10 12
10 6 0 8 3 4 7 -8 8 -36 -23 -36 -39 0 -11 52 -7 68 5 6 5 12 25 12 43 0 30
-3 34 -27 34 -16 0 -37 3 -48 5 -11 3 -25 2 -31 -2z"/>
<path d="M445 1369 c-4 -6 -5 -13 -2 -16 7 -7 27 6 27 18 0 12 -17 12 -25 -2z"/>
<path d="M2960 1359 c0 -5 5 -7 10 -4 6 3 10 8 10 11 0 2 -4 4 -10 4 -5 0 -10
-5 -10 -11z"/>
<path d="M242 1304 c-1 -13 3 -24 8 -24 6 0 10 7 10 15 0 8 5 15 10 15 18 0
11 16 -8 17 -12 1 -18 -6 -20 -23z"/>
<path d="M340 1307 c-38 -19 -80 -42 -100 -55 -2 -2 2 -7 10 -12 8 -5 11 -12
7 -16 -4 -4 -14 1 -22 12 -15 20 -16 20 -20 -12 -2 -19 3 -21 44 -19 45 2 45
2 16 -11 -17 -7 -38 -15 -47 -18 -10 -3 -18 -11 -18 -18 0 -8 3 -9 8 -3 11 15
33 19 72 14 8 -1 26 -1 39 -1 17 2 21 5 13 15 -5 7 -6 21 -1 32 6 16 8 17 8 3
1 -13 14 -17 74 -20 75 -4 102 8 90 39 -4 9 2 16 16 20 20 5 20 6 4 19 -25 19
-35 17 -28 -5 3 -11 1 -22 -5 -26 -5 -3 -10 1 -10 10 0 9 -5 13 -11 10 -6 -4
-8 -14 -4 -23 5 -13 2 -12 -15 3 -23 21 -27 40 -5 32 34 -14 22 13 -15 32 -49
25 -45 26 -100 -2z m74 -13 c4 -9 4 -19 1 -22 -3 -3 -5 0 -5 6 0 7 -9 12 -20
12 -11 0 -20 5 -20 10 0 17 37 11 44 -6z m-100 -40 c5 -14 4 -15 -9 -4 -17 14
-19 20 -6 20 5 0 12 -7 15 -16z m-19 -14 c3 -6 -1 -7 -9 -4 -18 7 -21 14 -7
14 6 0 13 -4 16 -10z m95 -10 c6 -11 9 -20 8 -20 -2 0 -11 9 -21 20 -9 11 -13
20 -7 20 5 0 14 -9 20 -20z m60 10 c0 -5 -4 -10 -10 -10 -5 0 -10 5 -10 10 0
6 5 10 10 10 6 0 10 -4 10 -10z"/>
<path d="M2927 1284 c-4 -4 -7 -19 -6 -33 0 -16 3 -20 6 -11 3 8 11 18 17 22
8 5 8 10 0 18 -6 6 -13 7 -17 4z"/>
<path d="M2964 1259 c-3 -6 0 -17 7 -25 12 -11 14 -9 15 11 2 26 -10 33 -22
14z"/>
<path d="M150 1229 c0 -5 9 -9 20 -9 11 0 20 2 20 4 0 2 -9 6 -20 9 -11 3 -20
1 -20 -4z"/>
<path d="M420 1180 c-32 -5 -40 -8 -28 -14 9 -4 22 -5 28 -1 5 3 10 4 10 1 0
-3 -13 -12 -30 -21 -16 -9 -30 -12 -30 -8 0 5 -31 9 -69 11 -60 2 -71 -1 -94
-22 -18 -17 -27 -35 -27 -56 0 -17 -4 -29 -9 -26 -5 3 -9 -10 -8 -29 1 -19 6
-34 11 -34 21 2 56 -13 50 -22 -3 -5 2 -9 10 -9 9 0 16 4 16 9 0 12 39 21 45
10 3 -4 -16 -15 -42 -22 -41 -12 -49 -12 -56 -1 -10 17 -48 18 -46 2 7 -53 -3
-107 -24 -131 -38 -45 -48 -36 -42 45 3 48 1 68 -6 61 -5 -5 -11 -22 -13 -37
-1 -14 -5 -29 -9 -32 -3 -3 -4 -11 -2 -17 15 -51 15 -69 1 -64 -9 4 -17 -1
-20 -11 -3 -9 -2 3 1 28 6 51 -4 48 -24 -8 -14 -42 -18 -178 -4 -186 14 -9 20
-45 9 -53 -6 -3 -9 -2 -6 3 3 5 2 18 -3 29 -4 12 -8 -33 -8 -107 -1 -87 3
-128 10 -128 7 0 10 -16 8 -44 -4 -41 -3 -43 18 -33 14 6 19 15 16 26 -4 9 -3
13 1 9 4 -3 11 -21 16 -40 4 -18 10 -40 12 -48 3 -8 3 -12 1 -7 -3 4 -9 7 -14
7 -6 0 -7 -5 -4 -10 4 -6 1 -17 -5 -25 -6 -8 -8 -20 -4 -26 4 -8 3 -9 -5 -5
-8 5 -10 19 -6 37 7 29 -8 41 -19 17 -3 -7 -3 -3 0 10 3 12 1 22 -5 22 -6 0
-11 -3 -12 -7 0 -5 -2 -20 -4 -35 -2 -15 1 -30 6 -33 5 -4 9 2 10 12 0 14 2
13 10 -5 9 -25 -3 -62 -21 -62 -6 0 -10 -23 -10 -51 l0 -51 143 6 c188 7 199
9 236 35 34 24 41 19 14 -11 -9 -10 -11 -18 -6 -18 6 0 23 16 39 35 27 34 29
35 103 36 56 0 71 3 56 10 -23 11 136 5 170 -6 17 -6 17 -5 5 5 -12 9 -8 10
20 5 l35 -7 -23 22 c-18 17 -26 19 -37 10 -9 -8 -20 -8 -31 -2 -15 8 -15 9 0
15 14 5 15 11 6 27 -9 16 -8 25 0 36 7 7 9 22 6 31 -6 15 -8 15 -16 3 -7 -11
-10 -12 -10 -2 0 10 -8 12 -29 7 -17 -3 -32 -2 -36 4 -3 7 3 11 17 12 70 3 82
5 86 18 3 9 0 11 -8 6 -9 -6 -9 -3 0 15 18 33 4 36 -25 4 -14 -17 -23 -22 -19
-11 5 14 0 17 -31 17 -21 0 -34 4 -30 10 4 6 -6 10 -24 10 -16 0 -33 -4 -36
-10 -12 -19 -24 -10 -21 18 2 15 0 34 -5 43 -4 9 -5 19 -1 23 3 4 5 23 3 42
-1 18 2 34 7 34 5 0 10 11 10 25 0 14 -4 25 -9 25 -5 0 -9 -7 -9 -16 0 -8 -7
-22 -15 -30 -17 -18 -70 -30 -60 -14 3 6 0 7 -9 4 -9 -3 -16 -11 -16 -17 0 -6
3 -7 7 -4 3 4 12 -1 20 -11 8 -9 11 -11 8 -4 -5 10 -1 13 16 10 36 -5 19 -23
-18 -21 -26 2 -33 -2 -33 -15 0 -10 6 -24 13 -31 10 -11 9 -13 -3 -9 -9 3 -16
19 -18 39 -1 19 -8 44 -14 56 -6 12 -8 28 -5 36 6 17 -1 28 -30 45 -26 14 -31
1 -8 -18 9 -7 13 -15 10 -18 -8 -9 -45 30 -45 47 0 9 -7 27 -16 39 -8 12 -11
22 -5 22 6 0 8 6 5 14 -6 16 82 29 106 15 10 -6 1 -8 -29 -9 -84 0 -81 -49 5
-85 28 -12 45 -13 74 -5 45 12 56 24 62 68 4 31 4 32 -33 32 -28 0 -41 5 -49
19 -10 20 1 37 19 27 5 -3 9 5 9 17 0 16 -6 23 -22 23 -11 0 -24 -4 -27 -9 -3
-4 -13 -1 -22 8 -18 17 -42 11 -31 -7 4 -7 2 -8 -4 -4 -8 5 -9 13 -3 24 14 29
1 41 -49 48 -41 5 -49 10 -47 25 2 10 6 22 10 25 14 15 6 25 -14 19 -16 -5
-19 -4 -14 6 6 9 3 11 -9 6 -10 -4 -20 -7 -22 -7 -3 0 -2 -6 2 -12 4 -7 3 -10
-1 -5 -5 4 -16 0 -25 -8 -16 -14 -18 -14 -24 0 -3 9 -2 14 3 11 5 -3 19 3 31
14 23 20 53 22 78 6 16 -10 25 -2 29 26 2 12 7 26 12 32 4 6 11 18 14 27 4 13
1 16 -14 12 -12 -4 -18 -11 -15 -19 6 -16 -13 -64 -25 -64 -18 0 -20 23 -3 41
9 10 13 19 8 19 -5 1 5 12 21 26 17 15 25 24 20 21 -6 -3 -16 3 -23 14 -14 22
-5 24 22 4 10 -8 23 -12 27 -9 5 3 17 0 26 -5 16 -10 17 -10 1 -11 -9 0 -20
-5 -24 -11 -4 -7 0 -9 14 -5 12 4 26 1 35 -9 18 -17 48 -10 41 10 -3 7 -14 11
-25 8 -15 -4 -18 -2 -12 13 3 9 15 26 25 36 10 10 18 26 17 36 0 11 -2 12 -6
4 -4 -10 -8 -10 -19 -1 -17 14 -1 49 21 49 8 0 15 3 15 8 0 13 -17 33 -26 31
-23 -4 -26 2 -8 15 26 19 18 23 -36 16z m-103 -52 c18 -7 33 -16 33 -20 0 -5
-9 -4 -20 2 -16 9 -18 8 -14 -5 4 -8 11 -15 17 -15 6 0 8 -3 5 -6 -12 -11 -50
17 -44 32 5 12 1 14 -15 9 -15 -5 -19 -4 -15 4 9 14 12 14 53 -1z m138 2 c3
-5 4 -10 1 -10 -2 0 -12 -3 -22 -7 -12 -4 -15 -3 -10 5 5 8 1 10 -10 5 -12 -4
-15 -3 -10 5 9 15 43 16 51 2z m-45 -20 c4 0 7 -11 6 -25 -1 -33 -12 -32 -21
3 -4 15 -10 21 -12 14 -3 -6 -9 -10 -14 -6 -14 9 1 26 18 20 8 -3 18 -6 23 -6z
m-107 -37 c3 -5 1 -17 -3 -28 -6 -17 -7 -16 -12 8 -5 25 5 37 15 20z m77 3 c0
-3 -4 -8 -10 -11 -5 -3 -10 -1 -10 4 0 6 5 11 10 11 6 0 10 -2 10 -4z m13 -29
c4 -10 -2 -13 -21 -9 -24 5 -25 6 -7 13 11 4 21 8 21 8 1 1 4 -5 7 -12z m45
-6 c10 -6 10 -10 -3 -21 -8 -7 -15 -10 -15 -7 0 3 -3 12 -6 21 -7 17 3 20 24
7z m-53 -21 c3 -5 2 -10 -4 -10 -5 0 -13 5 -16 10 -3 6 -2 10 4 10 5 0 13 -4
16 -10z m-120 -110 c-10 -11 -23 -20 -28 -20 -13 0 24 39 37 39 5 1 1 -8 -9
-19z m-28 -103 c-2 -7 -25 -12 -51 -12 -37 -1 -44 2 -33 10 21 15 89 16 84 2z
m201 -128 c-3 -8 -7 -3 -11 10 -4 17 -3 21 5 13 5 -5 8 -16 6 -23z m-338 -12
c0 -18 -15 -17 -15 1 0 4 -4 13 -8 19 -6 9 -3 11 7 7 9 -3 16 -15 16 -27z
m130 24 c0 -6 -4 -13 -10 -16 -5 -3 -10 1 -10 9 0 9 5 16 10 16 6 0 10 -4 10
-9z m-187 -44 c-4 -7 -6 -21 -4 -32 2 -16 1 -17 -12 -6 -13 10 -14 17 -5 36 6
14 15 22 20 19 4 -3 5 -11 1 -17z m31 4 c3 -5 -1 -11 -9 -14 -9 -4 -12 -1 -8
9 6 16 10 17 17 5z m217 -11 c10 0 19 -4 19 -9 0 -8 -19 -9 -62 -2 -5 0 -8 6
-8 12 0 6 7 8 16 5 9 -3 24 -6 35 -6z m13 -39 c4 -5 -3 -7 -14 -4 -23 6 -26
13 -6 13 8 0 17 -4 20 -9z m-224 -15 c0 -8 -4 -18 -10 -21 -5 -3 -10 -4 -10
-1 0 2 -3 11 -6 20 -4 11 -1 16 10 16 9 0 16 -6 16 -14z m22 -28 c-7 -7 -12
-8 -12 -2 0 14 12 26 19 19 2 -3 -1 -11 -7 -17z m263 -78 c3 -5 1 -10 -4 -10
-6 0 -11 5 -11 10 0 6 2 10 4 10 3 0 8 -4 11 -10z m-21 -16 c3 -8 2 -12 -4 -9
-6 3 -10 10 -10 16 0 14 7 11 14 -7z m84 -109 c-2 -1 -16 -5 -33 -9 -28 -7
-29 -6 -10 7 10 8 25 12 33 10 7 -3 12 -7 10 -8z m-278 -5 c0 -5 -5 -10 -11
-10 -5 0 -7 5 -4 10 3 6 8 10 11 10 2 0 4 -4 4 -10z m353 -34 c-5 -7 -8 -6
-10 1 -2 5 -16 9 -31 7 -16 -2 -19 -1 -7 2 11 3 24 10 29 15 12 11 27 -11 19
-25z m-373 9 c7 -9 10 -18 6 -22 -3 -3 -6 0 -6 8 -1 10 -4 9 -11 -4 -5 -9 -7
-22 -4 -27 3 -6 1 -10 -4 -10 -6 0 -11 16 -11 35 0 38 10 44 30 20z m550 -49
c0 -11 -19 -15 -25 -6 -3 5 1 10 9 10 9 0 16 -2 16 -4z m5 -76 c3 -5 1 -18 -5
-27 -9 -15 -10 -14 -4 7 7 25 7 25 -15 6 -23 -21 -29 -14 -8 9 14 17 24 18 32
5z m-81 -15 c-4 -8 -8 -15 -10 -15 -2 0 -4 7 -4 15 0 8 4 15 10 15 5 0 7 -7 4
-15z m116 -25 c0 -5 -4 -10 -10 -10 -5 0 -10 5 -10 10 0 6 5 10 10 10 6 0 10
-4 10 -10z"/>
<path d="M560 1170 c0 -5 5 -10 11 -10 5 0 7 5 4 10 -3 6 -8 10 -11 10 -2 0
-4 -4 -4 -10z"/>
<path d="M485 1160 c3 -5 8 -10 11 -10 2 0 4 5 4 10 0 6 -5 10 -11 10 -5 0 -7
-4 -4 -10z"/>
<path d="M156 1095 c-3 -9 -6 -22 -5 -28 0 -7 5 -1 10 12 5 13 8 26 5 28 -2 2
-6 -3 -10 -12z"/>
<path d="M465 1090 c-3 -5 -1 -10 4 -10 6 0 11 5 11 10 0 6 -2 10 -4 10 -3 0
-8 -4 -11 -10z"/>
<path d="M95 951 c-3 -5 -1 -12 5 -16 5 -3 10 1 10 9 0 18 -6 21 -15 7z"/>
<path d="M406 928 c3 -4 9 -8 15 -8 5 0 9 4 9 8 0 5 -7 9 -15 9 -8 0 -12 -4
-9 -9z"/>
<path d="M376 917 c3 -10 9 -15 12 -12 3 3 0 11 -7 18 -10 9 -11 8 -5 -6z"/>
<path d="M109 917 c-1 -4 -1 -16 -1 -27 0 -48 3 -61 12 -55 5 3 7 23 4 43 -6
35 -13 53 -15 39z"/>
<path d="M450 862 c-21 -22 -42 -36 -53 -34 -9 2 -17 -1 -17 -7 0 -20 20 -21
40 -1 l20 20 0 -22 c0 -21 5 -23 59 -24 l58 -1 -14 28 c-15 30 -27 40 -17 15
4 -11 0 -13 -17 -9 -15 4 -20 3 -15 -5 10 -16 -6 -15 -29 1 -17 13 -17 15 3
35 12 12 22 27 22 32 0 14 -1 13 -40 -28z"/>
<path d="M530 871 c0 -6 4 -13 10 -16 6 -3 7 1 4 9 -7 18 -14 21 -14 7z"/>
<path d="M5 841 c-3 -5 -1 -12 5 -16 5 -3 10 1 10 9 0 18 -6 21 -15 7z"/>
<path d="M310 824 c0 -2 9 -8 20 -14 11 -6 20 -7 20 -2 0 6 -9 12 -20 15 -11
3 -20 3 -20 1z"/>
<path d="M459 756 c12 -15 51 -18 51 -5 0 8 -26 19 -47 19 -12 0 -13 -3 -4
-14z"/>
<path d="M525 743 c-13 -52 -13 -93 -1 -93 12 0 35 88 28 109 -7 20 -20 12
-27 -16z"/>
<path d="M580 730 c-13 -8 -13 -10 2 -10 9 0 20 5 23 10 8 13 -5 13 -25 0z"/>
<path d="M587 584 c6 -15 23 -19 23 -5 0 5 -7 11 -14 14 -10 4 -13 1 -9 -9z"/>
<path d="M515 530 c-19 -8 -19 -9 3 -9 12 -1 22 4 22 9 0 6 -1 10 -2 9 -2 0
-12 -4 -23 -9z"/>
<path d="M608 493 c7 -3 16 -2 19 1 4 3 -2 6 -13 5 -11 0 -14 -3 -6 -6z"/>
<path d="M763 323 c-3 -10 -8 -21 -10 -25 -2 -4 2 -5 9 -3 8 3 14 14 14 25 0
25 -5 25 -13 3z"/>
<path d="M1020 286 c0 -2 7 -7 16 -10 8 -3 12 -2 9 4 -6 10 -25 14 -25 6z"/>
<path d="M767 253 c-4 -3 -7 -11 -7 -17 0 -6 5 -5 12 2 6 6 9 14 7 17 -3 3 -9
2 -12 -2z"/>
<path d="M32 238 c6 -18 25 -21 25 -3 0 8 -7 15 -14 15 -8 0 -13 -5 -11 -12z"/>
<path d="M773 182 c0 -12 5 -22 10 -22 4 0 6 -4 3 -9 -16 -26 64 -42 203 -43
126 0 143 1 137 10 -3 4 -24 7 -48 7 -24 -1 -52 3 -63 8 -20 11 -139 12 -155
2 -5 -3 -11 -1 -15 4 -3 6 -12 8 -20 4 -14 -5 -19 7 -16 36 2 8 -2 10 -9 6 -7
-4 -16 -1 -21 6 -6 10 -8 7 -6 -9z"/>
<path d="M1174 135 c-4 -8 -13 -15 -22 -15 -8 0 -12 -3 -8 -7 10 -10 97 -10
103 0 3 5 -1 8 -8 6 -39 -5 -61 2 -55 16 3 8 3 15 0 15 -2 0 -7 -7 -10 -15z"/>
<path d="M1980 119 c-19 -4 -39 -5 -44 -2 -5 4 -6 1 -2 -5 3 -6 30 -9 64 -8
31 2 68 -1 81 -6 26 -9 64 -2 56 11 -2 5 -27 9 -55 10 -28 0 -54 2 -58 4 -4 2
-23 0 -42 -4z"/>
<path d="M1339 107 c7 -7 14 -8 21 -1 6 6 2 10 -12 11 -16 2 -18 -1 -9 -10z"/>
<path d="M1830 110 l-35 -7 43 -2 c27 0 41 3 37 9 -3 6 -7 9 -8 9 -1 -1 -18
-5 -37 -9z"/>
<path d="M1895 110 c-3 -5 -1 -10 4 -10 6 0 11 5 11 10 0 6 -2 10 -4 10 -3 0
-8 -4 -11 -10z"/>
<path d="M2152 108 c6 -16 48 -23 48 -8 0 6 -4 9 -9 5 -5 -3 -12 -1 -16 5 -9
14 -27 12 -23 -2z"/>
<path d="M840 91 c0 -25 6 -27 13 -6 4 8 2 17 -3 20 -6 4 -10 -3 -10 -14z"/>
<path d="M2025 80 c3 -5 8 -10 11 -10 2 0 4 5 4 10 0 6 -5 10 -11 10 -5 0 -7
-4 -4 -10z"/>
</g>
</svg>
